#!OML:ASF F:\VICON\USERDATA\INSTALL\rory3\rory3.ASF
:FULLY-SPECIFIED
:DEGREES
1706
root 0.340627 14.6897 -3.2984 6.43143 6.07703 1.17211
lowerback 40.682 2.9511 4.7894
upperback 13.7412 5.74655 3.40941
thorax -4.12298 2.81529 -0.968047
lowerneck -16.8743 12.2145 -1.74125
upperneck -10.9686 17.1763 1.66214
head -1.13618 8.8708 1.4248
rclavicle 6.20208e-014 -1.27222e-014
rhumerus 26.6266 9.98229 -78.9169
rradius 126.28
rwrist 29.0032
rhand 16.7155 4.92276
rfingers 7.12502
rthumb 41.4639 -19.8444
lclavicle 6.20208e-014 -1.27222e-014
lhumerus 29.5348 -27.8802 78.1134
lradius 122.205
lwrist 1.85902
lhand -11.2484 26.1604
lfingers 7.12502
lthumb 14.7812 55.6133
rfemur -43.1475 1.08063 11.9674
rtibia 56.8858
rfoot -15.4308 -9.61337
rtoes -18.9609
lfemur -44.1855 -10.0417 -15.498
ltibia 52.205
lfoot -10.567 1.61365
ltoes -15.2285
1707
root 0.33649 14.6904 -3.29497 6.4297 6.16394 1.14633
lowerback 40.8014 2.9503 4.94655
upperback 13.7103 5.80714 3.33816
thorax -4.16738 2.85052 -1.14863
lowerneck -17.1517 12.1767 -1.70134
upperneck -10.8729 17.1183 1.69007
head -1.06048 8.84382 1.45111
rclavicle -6.67916e-014 3.18055e-015
rhumerus 26.5638 9.72824 -78.9469
rradius 126.336
rwrist 28.9592
rhand 16.6248 5.0298
rfingers 7.12502
rthumb 41.3788 -19.765
lclavicle -6.67916e-014 3.18055e-015
lhumerus 29.5971 -27.835 78.1812
lradius 122.15
lwrist 1.39946
lhand -10.2487 25.8406
lfingers 7.12502
lthumb 15.7442 55.2202
rfemur -43.069 1.06948 12.0134
rtibia 56.8715
rfoot -15.4491 -9.68274
rtoes -19.4483
lfemur -44.1667 -10.0731 -15.4575
ltibia 52.1575
lfoot -10.6219 1.61723
ltoes -15.5316
1708
root 0.333481 14.6971 -3.29166 6.43073 6.2351 1.21434
lowerback 40.9205 2.9235 4.94128
upperback 13.6759 5.77827 3.28296
thorax -4.23638 2.83645 -1.19921
lowerneck -17.5259 12.1924 -1.93451
upperneck -10.6435 17.1808 1.86089
head -0.965662 8.88812 1.57739
rclavicle 3.18055e-015 -1.27222e-014
rhumerus 26.5709 9.7289 -78.9453
rradius 126.322
rwrist 28.9489
rhand 16.5201 5.21291
rfingers 7.12502
rthumb 41.2805 -19.6137
lclavicle 3.18055e-015 -1.27222e-014
lhumerus 29.4985 -27.9728 78.2456
lradius 122.109
lwrist 1.28379
lhand -10.4144 25.7694
lfingers 7.12502
lthumb 15.5846 55.1616
rfemur -43.0273 1.08235 11.9307
rtibia 56.8497
rfoot -15.4472 -9.69178
rtoes -18.5978
lfemur -44.1097 -10.1376 -15.5225
ltibia 52.0867
lfoot -10.6204 1.62321
ltoes -15.62
1709
root 0.329895 14.703 -3.28863 6.42678 6.34627 1.20646
lowerback 41.1266 2.88595 5.00885
upperback 13.5395 5.77593 3.24617
thorax -4.43776 2.82962 -1.28482
lowerneck -17.5491 12.2301 -1.96287
upperneck -10.5682 17.2343 1.88927
head -0.943996 8.91603 1.59717
rclavicle -3.18055e-014 1.27222e-014
rhumerus 26.4155 9.77679 -78.9827
rradius 126.315
rwrist 28.9719
rhand 16.5581 5.25028
rfingers 7.12502
rthumb 41.3162 -19.5648
lclavicle -3.18055e-014 1.27222e-014
lhumerus 29.2857 -28.2607 78.3008
lradius 122.13
lwrist 1.39471
lhand -10.9839 25.9525
lfingers 7.12502
lthumb 15.036 55.3865
rfemur -42.9775 1.08484 11.9325
rtibia 56.818
rfoot -15.4718 -9.68938
rtoes -17.7019
lfemur -44.0648 -10.1823 -15.5029
ltibia 52.0052
lfoot -10.5774 1.54761
ltoes -15.5649
1710
root 0.324976 14.7066 -3.28501 6.48521 6.47263 1.07252
lowerback 41.2612 2.86509 5.10223
upperback 13.3742 5.80812 3.29267
thorax -4.65532 2.83451 -1.30784
lowerneck -17.2563 12.2913 -2.00763
upperneck -10.7631 17.3335 1.86243
head -1.05738 8.96548 1.56646
rclavicle -4.92986e-014 3.18055e-015
rhumerus 26.1811 9.87542 -78.9553
rradius 126.395
rwrist 28.9739
rhand 16.5259 5.18877
rfingers 7.12502
rthumb 41.286 -19.636
lclavicle -4.92986e-014 3.18055e-015
lhumerus 29.058 -28.1182 78.556
lradius 122.161
lwrist 1.16324
lhand -10.4279 25.9554
lfingers 7.12502
lthumb 15.5715 55.3485
rfemur -42.9869 1.08591 12.0977
rtibia 56.7838
rfoot -15.4737 -9.79882
rtoes -17.5412
lfemur -44.1323 -10.1932 -15.3231
ltibia 51.9351
lfoot -10.4988 1.4459
ltoes -15.2768
1711
root 0.320523 14.7102 -3.28181 6.55948 6.55838 1.1042
lowerback 41.3143 2.89187 5.03173
upperback 13.2967 5.8254 3.32466
thorax -4.76687 2.8345 -1.25155
lowerneck -17.0466 12.3117 -2.24636
upperneck -11.0588 17.427 1.95767
head -1.22026 9.02222 1.60175
rclavicle 2.38542e-014 7.95139e-015
rhumerus 26.0852 9.93775 -78.8674
rradius 126.48
rwrist 28.9432
rhand 16.5001 5.03044
rfingers 7.12502
rthumb 41.2618 -19.8022
lclavicle 2.38542e-014 7.95139e-015
lhumerus 29.0033 -28.0265 78.6021
lradius 122.232
lwrist 1.18266
lhand -10.4454 26.0635
lfingers 7.12502
lthumb 15.5547 55.458
rfemur -43.0155 1.0572 12.0807
rtibia 56.7698
rfoot -15.5142 -9.89173
rtoes -17.6174
lfemur -44.1787 -10.216 -15.333
ltibia 51.863
lfoot -10.4255 1.38052
ltoes -14.9394
1712
root 0.317289 14.7108 -3.27681 6.63337 6.58383 1.20485
lowerback 41.2875 2.94257 4.91161
upperback 13.3084 5.83991 3.32887
thorax -4.75811 2.83916 -1.19117
lowerneck -17.1307 12.2809 -2.46787
upperneck -11.1901 17.4403 2.03654
head -1.27879 9.04064 1.65794
rclavicle 5.08889e-014 7.15625e-014
rhumerus 26.1468 9.93922 -78.751
rradius 126.468
rwrist 28.9562
rhand 16.5209 4.94894
rfingers 7.12502
rthumb 41.2812 -19.8774
lclavicle 5.08889e-014 7.15625e-014
lhumerus 29.0879 -27.8426 78.4686
lradius 122.301
lwrist 1.58067
lhand -10.8446 26.1268
lfingers 7.12502
lthumb 15.1702 55.5507
rfemur -43.0391 1.05818 11.9847
rtibia 56.7565
rfoot -15.4394 -10.0181
rtoes -18.5899
lfemur -44.1975 -10.2029 -15.4332
ltibia 51.7997
lfoot -10.3634 1.32527
ltoes -15.0111
1713
root 0.314511 14.7105 -3.27203 6.71373 6.62812 1.34086
lowerback 41.2627 2.98197 4.80853
upperback 13.3132 5.84717 3.31918
thorax -4.75451 2.84146 -1.1516
lowerneck -17.3131 12.2426 -2.59638
upperneck -11.1756 17.4127 2.01776
head -1.25464 9.03468 1.68456
rclavicle 3.18055e-014 -1.59028e-014
rhumerus 26.1997 9.90875 -78.6021
rradius 126.385
rwrist 29.0464
rhand 16.4221 4.88022
rfingers 7.12502
rthumb 41.1886 -19.9759
lclavicle 3.18055e-014 -1.59028e-014
lhumerus 29.2057 -27.2567 78.4086
lradius 122.404
lwrist 1.83911
lhand -10.2514 26.1419
lfingers 7.12502
lthumb 15.7415 55.5217
rfemur -43.0408 1.01166 11.8584
rtibia 56.7318
rfoot -15.3945 -10.1247
rtoes -19.7326
lfemur -44.2241 -10.2247 -15.5662
ltibia 51.7259
lfoot -10.3333 1.31333
ltoes -15.5385
1714
root 0.311178 14.7134 -3.2689 6.79212 6.71916 1.37783
lowerback 41.2843 2.97972 4.783
upperback 13.247 5.84123 3.31955
thorax -4.83715 2.83463 -1.14062
lowerneck -17.4031 12.2385 -2.60965
upperneck -11.0983 17.4019 1.95343
head -1.20955 9.03006 1.67711
rclavicle -1.59028e-014 -2.38542e-014
rhumerus 26.1526 9.92999 -78.5757
rradius 126.302
rwrist 29.0891
rhand 16.4145 4.89139
rfingers 7.12502
rthumb 41.1814 -19.9671
lclavicle -1.59028e-014 -2.38542e-014
lhumerus 29.1937 -27.0173 78.3346
lradius 122.454
lwrist 2.2243
lhand -10.474 26.2512
lfingers 7.12502
lthumb 15.5271 55.6478
rfemur -43.0394 0.96815 11.8381
rtibia 56.6766
rfoot -15.363 -10.2055
rtoes -20.2914
lfemur -44.2683 -10.2362 -15.5849
ltibia 51.6399
lfoot -10.3199 1.2476
ltoes -15.4125
1715
root 0.307113 14.7216 -3.26478 6.8466 6.79042 1.28268
lowerback 41.3232 2.96561 4.84844
upperback 13.1648 5.85624 3.32125
thorax -4.93305 2.83847 -1.18275
lowerneck -17.4439 12.2616 -2.53812
upperneck -11.0075 17.4119 1.90102
head -1.16221 9.03175 1.65858
rclavicle 1.90833e-014 0
rhumerus 26.0456 10.0078 -78.5975
rradius 126.276
rwrist 29.1429
rhand 16.4833 4.93176
rfingers 7.12502
rthumb 41.246 -19.9059
lclavicle 1.90833e-014 0
lhumerus 29.0761 -27.2903 78.3756
lradius 122.366
lwrist 2.28768
lhand -11.1336 26.3179
lfingers 7.12502
lthumb 14.8918 55.7626
rfemur -43.0105 0.999589 11.9485
rtibia 56.581
rfoot -15.3354 -10.2753
rtoes -20.1288
lfemur -44.2838 -10.1922 -15.4679
ltibia 51.5427
lfoot -10.2855 1.18137
ltoes -15.1758
1716
root 0.304302 14.7291 -3.25952 6.89573 6.86013 1.3135
lowerback 41.3586 2.9644 4.82087
upperback 13.0919 5.84897 3.29422
thorax -5.02438 2.83153 -1.19976
lowerneck -17.3945 12.2676 -2.56291
upperneck -11.0269 17.4283 1.95781
head -1.18437 9.04078 1.67521
rclavicle -4.6118e-014 1.43125e-014
rhumerus 25.9749 10.0728 -78.5698
rradius 126.22
rwrist 29.142
rhand 16.5095 5.01805
rfingers 7.12502
rthumb 41.2706 -19.8117
lclavicle -4.6118e-014 1.43125e-014
lhumerus 28.8203 -27.5203 78.7813
lradius 122.219
lwrist 1.44511
lhand -10.4532 26.1074
lfingers 7.12502
lthumb 15.5471 55.5025
rfemur -42.9562 0.993218 11.9159
rtibia 56.4827
rfoot -15.3382 -10.3047
rtoes -20.0047
lfemur -44.2547 -10.1978 -15.4992
ltibia 51.4264
lfoot -10.2365 1.16331
ltoes -15.4839
1717
root 0.300516 14.736 -3.25431 6.95223 6.91623 1.39063
lowerback 41.3976 2.97441 4.76499
upperback 13.0201 5.84208 3.24223
thorax -5.11579 2.82527 -1.229
lowerneck -17.3709 12.2384 -2.68056
upperneck -11.0456 17.4215 2.13393
head -1.22124 9.04255 1.74324
rclavicle -2.22639e-014 -1.74931e-014
rhumerus 25.9016 10.0957 -78.5989
rradius 126.092
rwrist 29.1666
rhand 16.5117 5.1462
rfingers 7.12502
rthumb 41.2727 -19.6829
lclavicle -2.22639e-014 -1.74931e-014
lhumerus 28.5932 -27.5927 79.0804
lradius 122.176
lwrist 0.948901
lhand -9.78488 25.9907
lfingers 7.12502
lthumb 16.1908 55.3345
rfemur -42.9301 1.00067 11.8364
rtibia 56.3878
rfoot -15.3147 -10.335
rtoes -19.7329
lfemur -44.2222 -10.2056 -15.5727
ltibia 51.2978
lfoot -10.1646 1.11869
ltoes -15.7908
1718
root 0.296071 14.7436 -3.24739 6.99788 6.97563 1.39735
lowerback 41.3977 2.9546 4.78578
upperback 12.968 5.82473 3.18736
thorax -5.16619 2.81767 -1.29322
lowerneck -17.3838 12.208 -2.799
upperneck -11.0233 17.411 2.30731
head -1.23855 9.0426 1.81551
rclavicle 4.77083e-015 6.04305e-014
rhumerus 25.8012 10.0942 -78.6592
rradius 126.033
rwrist 29.1663
rhand 16.5224 5.14174
rfingers 7.12502
rthumb 41.2827 -19.6841
lclavicle 4.77083e-015 6.04305e-014
lhumerus 28.5085 -27.5292 79.1119
lradius 122.123
lwrist 1.04086
lhand -9.70806 25.8752
lfingers 7.12502
lthumb 16.2648 55.213
rfemur -42.8888 1.0136 11.8512
rtibia 56.2978
rfoot -15.2804 -10.4624
rtoes -19.6427
lfemur -44.1837 -10.1915 -15.5694
ltibia 51.1723
lfoot -10.1265 1.03501
ltoes -16.2406
1719
root 0.292476 14.751 -3.23975 7.01325 7.05065 1.39159
lowerback 41.3328 2.92126 4.83814
upperback 12.9853 5.7951 3.11915
thorax -5.11642 2.81068 -1.37676
lowerneck -17.3874 12.2154 -2.68744
upperneck -11.1149 17.4036 2.22722
head -1.25115 9.03592 1.77033
rclavicle 4.92986e-014 -9.54166e-015
rhumerus 25.7438 10.0481 -78.7102
rradius 126.037
rwrist 29.1499
rhand 16.6376 5.07646
rfingers 7.12502
rthumb 41.3908 -19.7144
lclavicle 4.92986e-014 -9.54166e-015
lhumerus 28.5833 -27.5299 78.9392
lradius 122.099
lwrist 1.17086
lhand -9.94204 26.1141
lfingers 7.12502
lthumb 16.0395 55.4702
rfemur -42.7986 0.992287 11.8845
rtibia 56.2139
rfoot -15.2763 -10.5522
rtoes -19.6695
lfemur -44.1041 -10.2258 -15.5488
ltibia 51.0471
lfoot -10.0981 0.94814
ltoes -16.4163
1720
root 0.288562 14.757 -3.23388 7.02926 7.11972 1.36743
lowerback 41.284 2.92203 4.85031
upperback 12.9889 5.79781 3.10668
thorax -5.09552 2.81422 -1.39514
lowerneck -17.4008 12.2145 -2.54742
upperneck -11.1805 17.3723 2.06407
head -1.24197 9.01538 1.69707
rclavicle -3.33958e-014 4.77083e-014
rhumerus 25.6197 10.0727 -78.6901
rradius 126.069
rwrist 29.1865
rhand 16.5545 4.99154
rfingers 7.12502
rthumb 41.3129 -19.8246
lclavicle -3.33958e-014 4.77083e-014
lhumerus 28.6834 -27.5838 78.8024
lradius 122.069
lwrist 1.32871
lhand -10.3301 26.5114
lfingers 7.12502
lthumb 15.6658 55.8971
rfemur -42.7368 1.00956 11.9236
rtibia 56.1423
rfoot -15.2712 -10.6075
rtoes -19.7069
lfemur -44.0486 -10.2463 -15.5026
ltibia 50.9237
lfoot -10.0533 0.899033
ltoes -16.1462
